<svg xmlns="http://www.w3.org/2000/svg" xmlns:xlink="http://www.w3.org/1999/xlink" width="500" zoomAndPan="magnify" viewBox="0 0 375 374.999991" height="500" preserveAspectRatio="xMidYMid meet" version="1.0"><defs><clipPath id="b178db5d8a"><path d="M 75.722656 84 L 295 84 L 295 302.820312 L 75.722656 302.820312 Z M 75.722656 84 " clip-rule="nonzero"/></clipPath><clipPath id="13806c8bca"><path d="M 119 71.820312 L 299.222656 71.820312 L 299.222656 257 L 119 257 Z M 119 71.820312 " clip-rule="nonzero"/></clipPath></defs><rect x="-37.5" width="450" fill="#ffffff" y="-37.499999" height="449.999989" fill-opacity="1"/><rect x="-37.5" width="450" fill="#ffffff" y="-37.499999" height="449.999989" fill-opacity="1"/><g clip-path="url(#b178db5d8a)"><path fill="#a391c4" d="M 184.90625 84.71875 C 124.722656 84.71875 75.722656 133.71875 75.722656 193.898438 C 75.722656 254.082031 124.722656 303.082031 184.90625 303.082031 C 245.089844 303.082031 294.089844 254.082031 294.089844 193.898438 C 294.089844 167.882812 285.285156 144.613281 270.335938 125.550781 L 260.054688 137.738281 C 273.089844 153.785156 278.191406 171.601562 278.191406 193.898438 C 278.191406 245.476562 236.480469 287.160156 184.90625 287.160156 C 133.332031 287.160156 91.621094 245.476562 91.621094 193.898438 C 91.621094 142.324219 133.332031 100.617188 184.90625 100.617188 C 201.25 100.617188 213.472656 102.964844 226.816406 110.335938 L 236.585938 97.507812 C 220.960938 88.878906 203.976562 84.714844 184.90625 84.714844 Z M 184.90625 84.71875 " fill-opacity="1" fill-rule="evenodd"/></g><g clip-path="url(#13806c8bca)"><path fill="#a391c4" d="M 144.496094 179.539062 C 148.902344 179.539062 152.230469 183.152344 154.488281 190.378906 C 159.003906 203.925781 162.222656 210.699219 164.140625 210.699219 C 165.609375 210.699219 167.132812 209.570312 168.714844 207.3125 C 200.4375 156.511719 229.789062 115.417969 256.769531 84.035156 C 263.765625 75.90625 274.886719 71.84375 290.128906 71.84375 C 293.742188 71.84375 296.167969 72.179688 297.410156 72.859375 C 298.652344 73.535156 299.273438 74.382812 299.273438 75.398438 C 299.273438 76.980469 297.410156 80.082031 293.683594 84.710938 C 250.109375 137.09375 209.691406 192.410156 172.4375 250.664062 C 169.84375 254.726562 164.535156 256.757812 156.519531 256.757812 C 148.394531 256.757812 143.59375 256.421875 142.128906 255.742188 C 138.289062 254.050781 133.773438 245.414062 128.582031 229.832031 C 122.710938 212.5625 119.773438 201.722656 119.773438 197.320312 C 119.773438 192.578125 123.726562 188.007812 131.628906 183.605469 C 136.484375 180.894531 140.773438 179.539062 144.496094 179.539062 " fill-opacity="1" fill-rule="nonzero"/></g></svg>