<svg xmlns="http://www.w3.org/2000/svg" xmlns:xlink="http://www.w3.org/1999/xlink" width="500" zoomAndPan="magnify" viewBox="0 0 375 374.999991" height="500" preserveAspectRatio="xMidYMid meet" version="1.0"><defs><clipPath id="eb92d471ab"><path d="M 82.695312 81.984375 L 291.945312 81.984375 L 291.945312 291.234375 L 82.695312 291.234375 Z M 82.695312 81.984375 " clip-rule="nonzero"/></clipPath></defs><g clip-path="url(#eb92d471ab)"><path fill="#e2ff81" d="M 187.496094 81.984375 C 129.699219 81.984375 82.695312 128.988281 82.695312 186.785156 C 82.695312 244.582031 129.699219 291.585938 187.496094 291.585938 C 245.292969 291.585938 292.296875 244.582031 292.296875 186.785156 C 292.296875 128.988281 245.292969 81.984375 187.496094 81.984375 Z M 187.496094 284.234375 C 133.6875 284.234375 90.046875 240.589844 90.046875 186.785156 C 90.046875 132.976562 133.6875 89.335938 187.496094 89.335938 C 241.304688 89.335938 284.945312 132.976562 284.945312 186.785156 C 284.945312 240.589844 241.304688 284.234375 187.496094 284.234375 Z M 187.496094 284.234375 " fill-opacity="1" fill-rule="nonzero"/></g><path fill="#e2ff81" d="M 240.261719 153.023438 L 204.78125 186.785156 L 240.261719 220.542969 C 241.214844 219.246094 241.820312 217.804688 242.085938 216.214844 L 242.085938 157.351562 C 241.820312 155.765625 241.214844 154.320312 240.261719 153.023438 Z M 240.261719 153.023438 " fill-opacity="1" fill-rule="nonzero"/><path fill="#e2ff81" d="M 187.496094 203.234375 L 172.898438 189.339844 L 137.441406 223.074219 C 139.113281 224.171875 140.945312 224.71875 142.945312 224.714844 L 232.050781 224.714844 C 234.046875 224.71875 235.882812 224.171875 237.550781 223.074219 L 202.097656 189.339844 Z M 187.496094 203.234375 " fill-opacity="1" fill-rule="nonzero"/><path fill="#e2ff81" d="M 134.730469 153.023438 C 133.78125 154.320312 133.171875 155.765625 132.90625 157.351562 L 132.90625 216.214844 C 133.171875 217.804688 133.78125 219.246094 134.730469 220.542969 L 170.210938 186.785156 Z M 134.730469 153.023438 " fill-opacity="1" fill-rule="nonzero"/><path fill="#e2ff81" d="M 172.898438 184.230469 L 187.496094 198.148438 L 237.550781 150.496094 C 235.882812 149.394531 234.046875 148.847656 232.050781 148.851562 L 142.945312 148.851562 C 140.945312 148.847656 139.113281 149.394531 137.441406 150.496094 Z M 172.898438 184.230469 " fill-opacity="1" fill-rule="nonzero"/></svg>