<svg xmlns="http://www.w3.org/2000/svg" xmlns:xlink="http://www.w3.org/1999/xlink" width="500" zoomAndPan="magnify" viewBox="0 0 375 374.999991" height="500" preserveAspectRatio="xMidYMid meet" version="1.0"><defs><clipPath id="d470a4a8f0"><path d="M 81.984375 81.984375 L 292.734375 81.984375 L 292.734375 292.734375 L 81.984375 292.734375 Z M 81.984375 81.984375 " clip-rule="nonzero"/></clipPath></defs><path fill="#e2ff81" d="M 215.054688 126.875 L 160.03125 126.875 C 141.808594 126.875 126.960938 141.71875 126.960938 159.941406 L 126.960938 214.964844 C 126.960938 233.1875 141.808594 248.035156 160.03125 248.035156 L 215.054688 248.035156 C 233.277344 248.035156 248.125 233.1875 248.125 214.964844 L 248.125 160.03125 C 248.125 141.71875 233.277344 126.875 215.054688 126.875 Z M 237.722656 215.054688 C 237.722656 227.589844 227.589844 237.722656 215.054688 237.722656 L 160.03125 237.722656 C 147.496094 237.722656 137.273438 227.589844 137.273438 215.054688 L 137.273438 160.03125 C 137.273438 147.496094 147.496094 137.273438 160.03125 137.273438 L 215.054688 137.273438 C 227.589844 137.273438 237.722656 147.40625 237.722656 160.03125 Z M 237.722656 215.054688 " fill-opacity="1" fill-rule="nonzero"/><path fill="#e2ff81" d="M 228.035156 154.339844 C 228.035156 158.429688 224.746094 161.808594 220.566406 161.808594 C 216.476562 161.808594 213.097656 158.519531 213.097656 154.339844 C 213.097656 150.253906 216.386719 146.875 220.566406 146.875 C 224.746094 146.964844 228.035156 150.253906 228.035156 154.339844 Z M 228.035156 154.339844 " fill-opacity="1" fill-rule="nonzero"/><path fill="#e2ff81" d="M 187.5 156.652344 C 170.519531 156.652344 156.652344 170.519531 156.652344 187.5 C 156.652344 204.476562 170.519531 218.34375 187.5 218.34375 C 204.476562 218.34375 218.34375 204.476562 218.34375 187.5 C 218.34375 170.519531 204.566406 156.652344 187.5 156.652344 Z M 187.5 207.945312 C 176.210938 207.945312 167.054688 198.789062 167.054688 187.5 C 167.054688 176.210938 176.210938 167.054688 187.5 167.054688 C 198.789062 167.054688 207.945312 176.210938 207.945312 187.5 C 207.945312 198.789062 198.789062 207.945312 187.5 207.945312 Z M 187.5 207.945312 " fill-opacity="1" fill-rule="nonzero"/><g clip-path="url(#d470a4a8f0)"><path fill="#e2ff81" d="M 187.5 293.015625 C 129.363281 293.015625 81.984375 245.722656 81.984375 187.5 C 81.984375 129.363281 129.363281 81.984375 187.5 81.984375 C 245.722656 81.984375 293.015625 129.363281 293.015625 187.5 C 293.015625 245.722656 245.722656 293.015625 187.5 293.015625 Z M 187.5 87.761719 C 132.472656 87.761719 87.761719 132.472656 87.761719 187.5 C 87.761719 242.523438 132.472656 287.234375 187.5 287.234375 C 242.523438 287.234375 287.234375 242.523438 287.234375 187.5 C 287.234375 132.472656 242.523438 87.761719 187.5 87.761719 Z M 187.5 87.761719 " fill-opacity="1" fill-rule="nonzero"/></g></svg>