<svg xmlns="http://www.w3.org/2000/svg" xmlns:xlink="http://www.w3.org/1999/xlink" width="500" zoomAndPan="magnify" viewBox="0 0 375 374.999991" height="500" preserveAspectRatio="xMidYMid meet" version="1.0"><defs><clipPath id="1dac42d93a"><path d="M 81.984375 81.984375 L 292.734375 81.984375 L 292.734375 292.734375 L 81.984375 292.734375 Z M 81.984375 81.984375 " clip-rule="nonzero"/></clipPath></defs><path fill="#e2ff81" d="M 193.277344 123.230469 C 161.007812 123.230469 134.785156 149.453125 134.785156 181.71875 C 134.785156 192.296875 137.628906 202.519531 142.964844 211.5 L 135.050781 240.035156 L 165.007812 232.921875 C 173.632812 237.722656 183.320312 240.210938 193.277344 240.210938 C 225.542969 240.210938 251.769531 213.988281 251.769531 181.71875 C 251.769531 149.453125 225.542969 123.230469 193.277344 123.230469 Z M 193.277344 230.613281 C 184.386719 230.613281 175.765625 228.210938 168.207031 223.765625 L 166.519531 222.789062 L 148.652344 226.964844 L 153.363281 209.988281 L 152.207031 208.210938 C 147.140625 200.386719 144.472656 191.144531 144.472656 181.71875 C 144.472656 154.785156 166.429688 132.828125 193.367188 132.828125 C 220.300781 132.828125 242.257812 154.785156 242.257812 181.71875 C 242.167969 208.742188 220.210938 230.613281 193.277344 230.613281 Z M 193.277344 230.613281 " fill-opacity="1" fill-rule="nonzero"/><path fill="#e2ff81" d="M 221.101562 202.789062 C 220.65625 205.1875 215.5 208.210938 212.210938 209.097656 C 204.03125 211.234375 192.566406 205.011719 181.1875 195.144531 C 169.71875 185.1875 161.984375 174.699219 163.054688 166.34375 C 163.410156 163.054688 165.808594 157.453125 168.121094 156.742188 C 170.34375 156.03125 171.941406 156.652344 174.253906 157.453125 C 175.410156 158.695312 176.832031 160.296875 178.429688 162.074219 C 180.566406 164.476562 181.988281 166.699219 182.964844 168.207031 C 183.675781 169.453125 183.410156 171.054688 182.34375 172.03125 L 178.429688 175.496094 C 177.71875 176.121094 177.453125 177.1875 177.898438 177.988281 C 179.140625 180.566406 181.988281 185.898438 186.164062 189.542969 C 190.34375 193.1875 196.03125 195.230469 198.699219 196.121094 C 199.585938 196.386719 200.566406 196.03125 201.097656 195.230469 L 204.03125 190.875 C 204.832031 189.722656 206.433594 189.1875 207.765625 189.722656 C 209.367188 190.433594 211.765625 191.5 214.433594 193.277344 C 216.476562 194.609375 218.167969 195.855469 219.589844 196.832031 C 220.65625 198.964844 221.542969 200.476562 221.101562 202.789062 Z M 221.101562 202.789062 " fill-opacity="1" fill-rule="nonzero"/><g clip-path="url(#1dac42d93a)"><path fill="#e2ff81" d="M 187.5 293.015625 C 129.363281 293.015625 81.984375 245.722656 81.984375 187.5 C 81.984375 129.363281 129.363281 81.984375 187.5 81.984375 C 245.632812 81.984375 293.015625 129.363281 293.015625 187.5 C 293.015625 245.722656 245.722656 293.015625 187.5 293.015625 Z M 187.5 87.761719 C 132.472656 87.761719 87.761719 132.472656 87.761719 187.5 C 87.761719 242.523438 132.472656 287.234375 187.5 287.234375 C 242.523438 287.234375 287.234375 242.523438 287.234375 187.5 C 287.234375 132.472656 242.523438 87.761719 187.5 87.761719 Z M 187.5 87.761719 " fill-opacity="1" fill-rule="nonzero"/></g></svg>