<svg xmlns="http://www.w3.org/2000/svg" xmlns:xlink="http://www.w3.org/1999/xlink" width="1080" zoomAndPan="magnify" viewBox="0 0 810 74.999997" height="100" preserveAspectRatio="xMidYMid meet" version="1.0"><path fill="#e2ff81" d="M 793.738281 18.558594 C 755.519531 16.316406 673.003906 17.90625 634.65625 17.941406 C 599.03125 17.980469 385.9375 17.960938 350.316406 17.980469 C 279.386719 18 208.445312 17.960938 137.515625 18.148438 C 117.128906 18.203125 96.738281 18.390625 76.367188 18.335938 C 60.40625 18.296875 43.339844 16.464844 27.71875 19.175781 C 23.398438 19.921875 18.335938 27.941406 14.765625 36.425781 C 14.390625 37.304688 19.664062 39.378906 19.664062 39.378906 C 19.664062 39.378906 13.160156 41.117188 12.839844 41.976562 C 9.867188 49.996094 9.101562 56.945312 12 57.132812 C 51.640625 59.65625 92.289062 57.675781 132.097656 57.789062 C 166.878906 57.898438 201.660156 57.976562 236.460938 57.976562 C 306.507812 57.992188 554.046875 57.992188 624.09375 58.011719 C 643.605469 58.011719 706.386719 58.050781 725.898438 58.066406 C 735.335938 58.066406 744.773438 58.085938 754.210938 58.085938 C 762.714844 58.085938 772.695312 58.851562 780.824219 57.023438 C 789.644531 55.039062 800.992188 18.988281 793.738281 18.558594 Z M 793.738281 18.558594 " fill-opacity="1" fill-rule="nonzero"/></svg>