<svg xmlns="http://www.w3.org/2000/svg" xmlns:xlink="http://www.w3.org/1999/xlink" width="500" zoomAndPan="magnify" viewBox="0 0 375 374.999991" height="500" preserveAspectRatio="xMidYMid meet" version="1.0"><defs><clipPath id="0a0f647346"><path d="M 34.140625 67.574219 L 340.855469 67.574219 L 340.855469 307.421875 L 34.140625 307.421875 Z M 34.140625 67.574219 " clip-rule="nonzero"/></clipPath></defs><g clip-path="url(#0a0f647346)"><path fill="#e2ff81" d="M 266.058594 186.824219 L 220.242188 186.824219 L 220.242188 67.574219 L 340.839844 67.574219 L 340.839844 168.09375 C 340.839844 217.277344 328.847656 252.511719 304.929688 273.871094 C 281.011719 295.226562 246.921875 306.410156 202.726562 307.421875 L 202.121094 259.046875 C 254.804688 253.523438 270.03125 230.484375 266.058594 186.824219 Z M 97.488281 186.824219 L 51.675781 186.824219 L 51.675781 67.574219 L 172.273438 67.574219 L 172.273438 168.09375 C 172.273438 217.277344 160.28125 252.511719 136.363281 273.871094 C 112.445312 295.226562 78.355469 306.410156 34.160156 307.421875 L 34.160156 258.578125 C 86.84375 253.121094 101.464844 230.484375 97.488281 186.824219 Z M 97.488281 186.824219 " fill-opacity="1" fill-rule="nonzero"/></g></svg>