<svg xmlns="http://www.w3.org/2000/svg" xmlns:xlink="http://www.w3.org/1999/xlink" width="500" zoomAndPan="magnify" viewBox="0 0 375 374.999991" height="500" preserveAspectRatio="xMidYMid meet" version="1.0"><defs><clipPath id="4baee30d0d"><path d="M 34.105469 67.574219 L 340.855469 67.574219 L 340.855469 307.421875 L 34.105469 307.421875 Z M 34.105469 67.574219 " clip-rule="nonzero"/></clipPath></defs><g clip-path="url(#4baee30d0d)"><path fill="#e2ff81" d="M 108.941406 186.824219 L 154.757812 186.824219 L 154.757812 67.574219 L 34.160156 67.574219 L 34.160156 168.09375 C 34.160156 217.277344 46.152344 252.511719 70.070312 273.871094 C 93.984375 295.226562 128.078125 306.410156 172.273438 307.421875 L 172.878906 259.046875 C 120.195312 253.523438 104.96875 230.484375 108.941406 186.824219 Z M 277.511719 186.824219 L 323.324219 186.824219 L 323.324219 67.574219 L 202.726562 67.574219 L 202.726562 168.09375 C 202.726562 217.277344 214.71875 252.511719 238.636719 273.871094 C 262.554688 295.226562 296.644531 306.410156 340.839844 307.421875 L 340.839844 258.578125 C 288.15625 253.121094 273.535156 230.484375 277.511719 186.824219 Z M 277.511719 186.824219 " fill-opacity="1" fill-rule="nonzero"/></g></svg>